<svg width="17" height="20" viewBox="0 0 17 20" fill="none" xmlns="http://www.w3.org/2000/svg">
<path d="M5.33301 10L15.333 10" stroke="#9197B3" stroke-width="1.6" stroke-linecap="round"/>
<line x1="15.8686" y1="10" x2="13" y2="7.13137" stroke="#9197B3" stroke-width="1.6" stroke-linecap="round"/>
<line x1="0.8" y1="-0.8" x2="4.85685" y2="-0.8" transform="matrix(-0.707107 0.707107 0.707107 0.707107 17 10)" stroke="#9197B3" stroke-width="1.6" stroke-linecap="round"/>
<path d="M8.5 1.8C8.94183 1.8 9.3 1.44183 9.3 1C9.3 0.558173 8.94183 0.2 8.5 0.2L8.5 1.8ZM8.5 19.8C8.94183 19.8 9.3 19.4418 9.3 19C9.3 18.5582 8.94183 18.2 8.5 18.2L8.5 19.8ZM1.38421 3.64065L0.587898 3.56388L1.38421 3.64065ZM1.3842 16.3593L2.18051 16.2826L1.3842 16.3593ZM8.5 18.2C8.49698 18.2 8.49397 18.2 8.49096 18.2C8.48794 18.2 8.48493 18.2 8.48192 18.2C8.4789 18.2 8.47589 18.2 8.47288 18.2C8.46986 18.2 8.46685 18.2 8.46384 18.2C8.46083 18.2 8.45782 18.2 8.4548 18.2C8.45179 18.2 8.44878 18.2 8.44577 18.2C8.44276 18.2 8.43975 18.2 8.43674 18.2C8.43373 18.2 8.43072 18.2 8.42771 18.2C8.4247 18.2 8.42169 18.2 8.41868 18.2C8.41568 18.2 8.41267 18.2 8.40966 18.2C8.40665 18.2 8.40364 18.2 8.40064 18.2C8.39763 18.2 8.39462 18.2 8.39161 18.2C8.38861 18.2 8.3856 18.2 8.38259 18.2C8.37959 18.2 8.37658 18.2 8.37358 18.2C8.37057 18.2 8.36757 18.2 8.36456 18.2C8.36156 18.2 8.35855 18.2 8.35555 18.2C8.35254 18.2 8.34954 18.2 8.34654 18.2C8.34353 18.2 8.34053 18.2 8.33753 18.2C8.33453 18.2 8.33152 18.2 8.32852 18.2C8.32552 18.2 8.32252 18.2 8.31952 18.2C8.31651 18.2 8.31351 18.2 8.31051 18.2C8.30751 18.2 8.30451 18.2 8.30151 18.2C8.29851 18.2 8.29551 18.2 8.29251 18.2C8.28951 18.2 8.28651 18.2 8.28352 18.2C8.28052 18.2 8.27752 18.2 8.27452 18.2C8.27152 18.2 8.26853 18.2 8.26553 18.2C8.26253 18.2 8.25953 18.2 8.25654 18.2C8.25354 18.2 8.25055 18.2 8.24755 18.2C8.24455 18.2 8.24156 18.2 8.23856 18.2C8.23557 18.2 8.23257 18.2 8.22958 18.2C8.22658 18.2 8.22359 18.2 8.2206 18.2C8.2176 18.2 8.21461 18.2 8.21162 18.2C8.20862 18.2 8.20563 18.2 8.20264 18.2C8.19965 18.2 8.19666 18.2 8.19366 18.2C8.19067 18.2 8.18768 18.2 8.18469 18.2C8.1817 18.2 8.17871 18.2 8.17572 18.2C8.17273 18.2 8.16974 18.2 8.16675 18.2C8.16376 18.2 8.16077 18.2 8.15778 18.2C8.1548 18.2 8.15181 18.2 8.14882 18.2C8.14583 18.2 8.14284 18.2 8.13986 18.2C8.13687 18.2 8.13388 18.2 8.1309 18.2C8.12791 18.2 8.12492 18.2 8.12194 18.2C8.11895 18.2 8.11597 18.2 8.11298 18.2C8.11 18.2 8.10701 18.2 8.10403 18.2C8.10105 18.2 8.09806 18.2 8.09508 18.2C8.0921 18.2 8.08911 18.2 8.08613 18.2C8.08315 18.2 8.08017 18.2 8.07718 18.2C8.0742 18.2 8.07122 18.2 8.06824 18.2C8.06526 18.2 8.06228 18.2 8.0593 18.2C8.05632 18.2 8.05334 18.2 8.05036 18.2C8.04738 18.2 8.0444 18.2 8.04142 18.2C8.03844 18.2 8.03547 18.2 8.03249 18.2C8.02951 18.2 8.02653 18.2 8.02356 18.2C8.02058 18.2 8.0176 18.2 8.01463 18.2C8.01165 18.2 8.00867 18.2 8.0057 18.2C8.00272 18.2 7.99975 18.2 7.99677 18.2C7.9938 18.2 7.99082 18.2 7.98785 18.2C7.98488 18.2 7.9819 18.2 7.97893 18.2C7.97596 18.2 7.97298 18.2 7.97001 18.2C7.96704 18.2 7.96407 18.2 7.9611 18.2C7.95812 18.2 7.95515 18.2 7.95218 18.2C7.94921 18.2 7.94624 18.2 7.94327 18.2C7.9403 18.2 7.93733 18.2 7.93436 18.2C7.93139 18.2 7.92843 18.2 7.92546 18.2C7.92249 18.2 7.91952 18.2 7.91655 18.2C7.91359 18.2 7.91062 18.2 7.90765 18.2C7.90469 18.2 7.90172 18.2 7.89875 18.2C7.89579 18.2 7.89282 18.2 7.88986 18.2C7.88689 18.2 7.88393 18.2 7.88097 18.2C7.878 18.2 7.87504 18.2 7.87207 18.2C7.86911 18.2 7.86615 18.2 7.86319 18.2C7.86022 18.2 7.85726 18.2 7.8543 18.2C7.85134 18.2 7.84838 18.2 7.84542 18.2C7.84246 18.2 7.8395 18.2 7.83654 18.2C7.83358 18.2 7.83062 18.2 7.82766 18.2C7.8247 18.2 7.82174 18.2 7.81878 18.2C7.81582 18.2 7.81287 18.2 7.80991 18.2C7.80695 18.2 7.804 18.2 7.80104 18.2C7.79808 18.2 7.79513 18.2 7.79217 18.2C7.78922 18.2 7.78626 18.2 7.78331 18.2C7.78035 18.2 7.7774 18.2 7.77444 18.2C7.77149 18.2 7.76854 18.2 7.76558 18.2C7.76263 18.2 7.75968 18.2 7.75673 18.2C7.75377 18.2 7.75082 18.2 7.74787 18.2C7.74492 18.2 7.74197 18.2 7.73902 18.2C7.73607 18.2 7.73312 18.2 7.73017 18.2C7.72722 18.2 7.72427 18.2 7.72132 18.2C7.71837 18.2 7.71543 18.2 7.71248 18.2C7.70953 18.2 7.70658 18.2 7.70364 18.2C7.70069 18.2 7.69774 18.2 7.6948 18.2C7.69185 18.2 7.68891 18.2 7.68596 18.2C7.68302 18.2 7.68007 18.2 7.67713 18.2C7.67419 18.2 7.67124 18.2 7.6683 18.2C7.66536 18.2 7.66241 18.2 7.65947 18.2C7.65653 18.2 7.65359 18.2 7.65065 18.2C7.6477 18.2 7.64476 18.2 7.64182 18.2C7.63888 18.2 7.63594 18.2 7.633 18.2C7.63007 18.2 7.62713 18.2 7.62419 18.2C7.62125 18.2 7.61831 18.2 7.61537 18.2C7.61244 18.2 7.6095 18.2 7.60656 18.2C7.60363 18.2 7.60069 18.2 7.59775 18.2C7.59482 18.2 7.59188 18.2 7.58895 18.2C7.58601 18.2 7.58308 18.2 7.58015 18.2C7.57721 18.2 7.57428 18.2 7.57135 18.2C7.56841 18.2 7.56548 18.2 7.56255 18.2C7.55962 18.2 7.55669 18.2 7.55375 18.2C7.55082 18.2 7.54789 18.2 7.54496 18.2C7.54203 18.2 7.5391 18.2 7.53617 18.2C7.53325 18.2 7.53032 18.2 7.52739 18.2C7.52446 18.2 7.52153 18.2 7.51861 18.2C7.51568 18.2 7.51275 18.2 7.50983 18.2C7.5069 18.2 7.50397 18.2 7.50105 18.2C7.49812 18.2 7.4952 18.2 7.49228 18.2C7.48935 18.2 7.48643 18.2 7.4835 18.2C7.48058 18.2 7.47766 18.2 7.47474 18.2C7.47181 18.2 7.46889 18.2 7.46597 18.2C7.46305 18.2 7.46013 18.2 7.45721 18.2C7.45429 18.2 7.45137 18.2 7.44845 18.2C7.44553 18.2 7.44261 18.2 7.43969 18.2C7.43677 18.2 7.43386 18.2 7.43094 18.2C7.42802 18.2 7.42511 18.2 7.42219 18.2C7.41927 18.2 7.41636 18.2 7.41344 18.2C7.41053 18.2 7.40761 18.2 7.4047 18.2C7.40178 18.2 7.39887 18.2 7.39596 18.2C7.39304 18.2 7.39013 18.2 7.38722 18.2C7.3843 18.2 7.38139 18.2 7.37848 18.2C7.37557 18.2 7.37266 18.2 7.36975 18.2C7.36684 18.2 7.36393 18.2 7.36102 18.2C7.35811 18.2 7.3552 18.2 7.35229 18.2C7.34939 18.2 7.34648 18.2 7.34357 18.2C7.34066 18.2 7.33776 18.2 7.33485 18.2C7.33194 18.2 7.32904 18.2 7.32613 18.2C7.32323 18.2 7.32032 18.2 7.31742 18.2C7.31452 18.2 7.31161 18.2 7.30871 18.2C7.30581 18.2 7.3029 18.2 7.3 18.2C7.2971 18.2 7.2942 18.2 7.2913 18.2C7.2884 18.2 7.2855 18.2 7.2826 18.2C7.2797 18.2 7.2768 18.2 7.2739 18.2C7.271 18.2 7.2681 18.2 7.2652 18.2C7.2623 18.2 7.25941 18.2 7.25651 18.2C7.25361 18.2 7.25072 18.2 7.24782 18.2C7.24493 18.2 7.24203 18.2 7.23914 18.2C7.23624 18.2 7.23335 18.2 7.23045 18.2C7.22756 18.2 7.22467 18.2 7.22177 18.2C7.21888 18.2 7.21599 18.2 7.2131 18.2C7.21021 18.2 7.20732 18.2 7.20443 18.2C7.20154 18.2 7.19865 18.2 7.19576 18.2C7.19287 18.2 7.18998 18.2 7.18709 18.2C7.1842 18.2 7.18131 18.2 7.17843 18.2C7.17554 18.2 7.17265 18.2 7.16977 18.2C7.16688 18.2 7.164 18.2 7.16111 18.2C7.15823 18.2 7.15534 18.2 7.15246 18.2C7.14957 18.2 7.14669 18.2 7.14381 18.2C7.14092 18.2 7.13804 18.2 7.13516 18.2C7.13228 18.2 7.1294 18.2 7.12652 18.2C7.12364 18.2 7.12076 18.2 7.11788 18.2C7.115 18.2 7.11212 18.2 7.10924 18.2C7.10636 18.2 7.10348 18.2 7.10061 18.2C7.09773 18.2 7.09485 18.2 7.09198 18.2C7.0891 18.2 7.08623 18.2 7.08335 18.2C7.08048 18.2 7.0776 18.2 7.07473 18.2C7.07185 18.2 7.06898 18.2 7.06611 18.2C7.06323 18.2 7.06036 18.2 7.05749 18.2C7.05462 18.2 7.05175 18.2 7.04888 18.2C7.04601 18.2 7.04314 18.2 7.04027 18.2C7.0374 18.2 7.03453 18.2 7.03166 18.2C7.02879 18.2 7.02592 18.2 7.02306 18.2C7.02019 18.2 7.01732 18.2 7.01446 18.2C7.01159 18.2 7.00873 18.2 7.00586 18.2C7.003 18.2 7.00013 18.2 6.99727 18.2C6.99441 18.2 6.99154 18.2 6.98868 18.2C6.98582 18.2 6.98296 18.2 6.98009 18.2C6.97723 18.2 6.97437 18.2 6.97151 18.2C6.96865 18.2 6.96579 18.2 6.96293 18.2C6.96007 18.2 6.95722 18.2 6.95436 18.2C6.9515 18.2 6.94864 18.2 6.94579 18.2C6.94293 18.2 6.94007 18.2 6.93722 18.2C6.93436 18.2 6.93151 18.2 6.92865 18.2C6.9258 18.2 6.92294 18.2 6.92009 18.2C6.91724 18.2 6.91438 18.2 6.91153 18.2C6.90868 18.2 6.90583 18.2 6.90298 18.2C6.90013 18.2 6.89728 18.2 6.89443 18.2C6.89158 18.2 6.88873 18.2 6.88588 18.2C6.88303 18.2 6.88018 18.2 6.87734 18.2C6.87449 18.2 6.87164 18.2 6.8688 18.2C6.86595 18.2 6.86311 18.2 6.86026 18.2C6.85742 18.2 6.85457 18.2 6.85173 18.2C6.84888 18.2 6.84604 18.2 6.8432 18.2C6.84036 18.2 6.83751 18.2 6.83467 18.2C6.83183 18.2 6.82899 18.2 6.82615 18.2C6.82331 18.2 6.82047 18.2 6.81763 18.2C6.81479 18.2 6.81196 18.2 6.80912 18.2C6.80628 18.2 6.80344 18.2 6.80061 18.2C6.79777 18.2 6.79493 18.2 6.7921 18.2C6.78926 18.2 6.78643 18.2 6.7836 18.2C6.78076 18.2 6.77793 18.2 6.7751 18.2C6.77226 18.2 6.76943 18.2 6.7666 18.2C6.76377 18.2 6.76094 18.2 6.75811 18.2C6.75528 18.2 6.75245 18.2 6.74962 18.2C6.74679 18.2 6.74396 18.2 6.74113 18.2C6.7383 18.2 6.73548 18.2 6.73265 18.2C6.72982 18.2 6.727 18.2 6.72417 18.2C6.72135 18.2 6.71852 18.2 6.7157 18.2C6.71288 18.2 6.71005 18.2 6.70723 18.2C6.70441 18.2 6.70158 18.2 6.69876 18.2C6.69594 18.2 6.69312 18.2 6.6903 18.2C6.68748 18.2 6.68466 18.2 6.68184 18.2C6.67902 18.2 6.6762 18.2 6.67339 18.2C6.67057 18.2 6.66775 18.2 6.66493 18.2C6.66212 18.2 6.6593 18.2 6.65649 18.2C6.65367 18.2 6.65086 18.2 6.64804 18.2C6.64523 18.2 6.64242 18.2 6.6396 18.2C6.63679 18.2 6.63398 18.2 6.63117 18.2C6.62836 18.2 6.62555 18.2 6.62273 18.2C6.61992 18.2 6.61712 18.2 6.61431 18.2C6.6115 18.2 6.60869 18.2 6.60588 18.2C6.60307 18.2 6.60027 18.2 6.59746 18.2C6.59466 18.2 6.59185 18.2 6.58904 18.2C6.58624 18.2 6.58344 18.2 6.58063 18.2C6.57783 18.2 6.57503 18.2 6.57222 18.2C6.56942 18.2 6.56662 18.2 6.56382 18.2C6.56102 18.2 6.55822 18.2 6.55542 18.2C6.55262 18.2 6.54982 18.2 6.54702 18.2C6.54422 18.2 6.54142 18.2 6.53863 18.2C6.53583 18.2 6.53303 18.2 6.53024 18.2C6.52744 18.2 6.52465 18.2 6.52185 18.2C6.51906 18.2 6.51626 18.2 6.51347 18.2C6.51068 18.2 6.50789 18.2 6.50509 18.2C6.5023 18.2 6.49951 18.2 6.49672 18.2C6.49393 18.2 6.49114 18.2 6.48835 18.2C6.48556 18.2 6.48277 18.2 6.47999 18.2C6.4772 18.2 6.47441 18.2 6.47162 18.2C6.46884 18.2 6.46605 18.2 6.46327 18.2C6.46048 18.2 6.4577 18.2 6.45491 18.2C6.45213 18.2 6.44935 18.2 6.44656 18.2C6.44378 18.2 6.441 18.2 6.43822 18.2C6.43544 18.2 6.43266 18.2 6.42988 18.2C6.4271 18.2 6.42432 18.2 6.42154 18.2C6.41876 18.2 6.41599 18.2 6.41321 18.2C6.41043 18.2 6.40765 18.2 6.40488 18.2C6.4021 18.2 6.39933 18.2 6.39655 18.2C6.39378 18.2 6.39101 18.2 6.38823 18.2C6.38546 18.2 6.38269 18.2 6.37992 18.2C6.37715 18.2 6.37438 18.2 6.3716 18.2C6.36883 18.2 6.36607 18.2 6.3633 18.2C6.36053 18.2 6.35776 18.2 6.35499 18.2C6.35223 18.2 6.34946 18.2 6.34669 18.2C6.34393 18.2 6.34116 18.2 6.3384 18.2C6.33563 18.2 6.33287 18.2 6.33011 18.2C6.32734 18.2 6.32458 18.2 6.32182 18.2C6.31906 18.2 6.31629 18.2 6.31353 18.2C6.31077 18.2 6.30801 18.2 6.30526 18.2C6.3025 18.2 6.29974 18.2 6.29698 18.2C6.29422 18.2 6.29147 18.2 6.28871 18.2C6.28595 18.2 6.2832 18.2 6.28044 18.2C6.27769 18.2 6.27493 18.2 6.27218 18.2C6.26943 18.2 6.26667 18.2 6.26392 18.2C6.26117 18.2 6.25842 18.2 6.25567 18.2C6.25292 18.2 6.25017 18.2 6.24742 18.2C6.24467 18.2 6.24192 18.2 6.23917 18.2C6.23643 18.2 6.23368 18.2 6.23093 18.2C6.22819 18.2 6.22544 18.2 6.2227 18.2C6.21995 18.2 6.21721 18.2 6.21447 18.2C6.21172 18.2 6.20898 18.2 6.20624 18.2C6.2035 18.2 6.20075 18.2 6.19801 18.2C6.19527 18.2 6.19253 18.2 6.18979 18.2C6.18706 18.2 6.18432 18.2 6.18158 18.2C6.17884 18.2 6.1761 18.2 6.17337 18.2C6.17063 18.2 6.1679 18.2 6.16516 18.2C6.16243 18.2 6.15969 18.2 6.15696 18.2C6.15423 18.2 6.15149 18.2 6.14876 18.2C6.14603 18.2 6.1433 18.2 6.14057 18.2C6.13784 18.2 6.13511 18.2 6.13238 18.2C6.12965 18.2 6.12692 18.2 6.1242 18.2C6.12147 18.2 6.11874 18.2 6.11602 18.2C6.11329 18.2 6.11057 18.2 6.10784 18.2C6.10512 18.2 6.10239 18.2 6.09967 18.2C6.09695 18.2 6.09423 18.2 6.0915 18.2C6.08878 18.2 6.08606 18.2 6.08334 18.2C6.08062 18.2 6.0779 18.2 6.07518 18.2C6.07247 18.2 6.06975 18.2 6.06703 18.2C6.06431 18.2 6.0616 18.2 6.05888 18.2C6.05617 18.2 6.05345 18.2 6.05074 18.2C6.04802 18.2 6.04531 18.2 6.0426 18.2C6.03989 18.2 6.03717 18.2 6.03446 18.2C6.03175 18.2 6.02904 18.2 6.02633 18.2C6.02362 18.2 6.02091 18.2 6.01821 18.2C6.0155 18.2 6.01279 18.2 6.01008 18.2C6.00738 18.2 6.00467 18.2 6.00197 18.2C5.99926 18.2 5.99656 18.2 5.99385 18.2C5.99115 18.2 5.98845 18.2 5.98575 18.2C5.98304 18.2 5.98034 18.2 5.97764 18.2C5.97494 18.2 5.97224 18.2 5.96954 18.2C5.96685 18.2 5.96415 18.2 5.96145 18.2C5.95875 18.2 5.95606 18.2 5.95336 18.2C5.95066 18.2 5.94797 18.2 5.94528 18.2C5.94258 18.2 5.93989 18.2 5.93719 18.2C5.9345 18.2 5.93181 18.2 5.92912 18.2C5.92643 18.2 5.92374 18.2 5.92105 18.2C5.91836 18.2 5.91567 18.2 5.91298 18.2C5.91029 18.2 5.90761 18.2 5.90492 18.2C5.90223 18.2 5.89955 18.2 5.89686 18.2C5.89418 18.2 5.89149 18.2 5.88881 18.2C5.88613 18.2 5.88344 18.2 5.88076 18.2C5.87808 18.2 5.8754 18.2 5.87272 18.2C5.87004 18.2 5.86736 18.2 5.86468 18.2C5.862 18.2 5.85932 18.2 5.85665 18.2C5.85397 18.2 5.85129 18.2 5.84862 18.2C5.84594 18.2 5.84327 18.2 5.84059 18.2C5.83792 18.2 5.83525 18.2 5.83257 18.2C5.8299 18.2 5.82723 18.2 5.82456 18.2C5.82189 18.2 5.81922 18.2 5.81655 18.2C5.81388 18.2 5.81121 18.2 5.80854 18.2C5.80588 18.2 5.80321 18.2 5.80054 18.2C5.79788 18.2 5.79521 18.2 5.79255 18.2C5.78988 18.2 5.78722 18.2 5.78456 18.2C5.78189 18.2 5.77923 18.2 5.77657 18.2C5.77391 18.2 5.77125 18.2 5.76859 18.2C5.76593 18.2 5.76327 18.2 5.76061 18.2C5.75795 18.2 5.7553 18.2 5.75264 18.2C5.74998 18.2 5.74733 18.2 5.74467 18.2C5.74202 18.2 5.73937 18.2 5.73671 18.2C5.73406 18.2 5.73141 18.2 5.72875 18.2C5.7261 18.2 5.72345 18.2 5.7208 18.2C5.71815 18.2 5.7155 18.2 5.71286 18.2C5.71021 18.2 5.70756 18.2 5.70491 18.2C5.70227 18.2 5.69962 18.2 5.69697 18.2C5.69433 18.2 5.69169 18.2 5.68904 18.2C5.6864 18.2 5.68376 18.2 5.68111 18.2C5.67847 18.2 5.67583 18.2 5.67319 18.2C5.67055 18.2 5.66791 18.2 5.66527 18.2C5.66264 18.2 5.66 18.2 5.65736 18.2C5.65472 18.2 5.65209 18.2 5.64945 18.2C5.64682 18.2 5.64418 18.2 5.64155 18.2C5.63892 18.2 5.63628 18.2 5.63365 18.2C5.63102 18.2 5.62839 18.2 5.62576 18.2C5.62313 18.2 5.6205 18.2 5.61787 18.2C5.61524 18.2 5.61261 18.2 5.60999 18.2C5.60736 18.2 5.60473 18.2 5.60211 18.2C5.59948 18.2 5.59686 18.2 5.59424 18.2C5.59161 18.2 5.58899 18.2 5.58637 18.2C5.58375 18.2 5.58113 18.2 5.57851 18.2C5.57588 18.2 5.57327 18.2 5.57065 18.2C5.56803 18.2 5.56541 18.2 5.56279 18.2C5.56018 18.2 5.55756 18.2 5.55495 18.2C5.55233 18.2 5.54972 18.2 5.5471 18.2C5.54449 18.2 5.54188 18.2 5.53927 18.2C5.53665 18.2 5.53404 18.2 5.53143 18.2C5.52882 18.2 5.52621 18.2 5.52361 18.2C5.521 18.2 5.51839 18.2 5.51578 18.2C5.51318 18.2 5.51057 18.2 5.50797 18.2C5.50536 18.2 5.50276 18.2 5.50015 18.2C5.49755 18.2 5.49495 18.2 5.49235 18.2C5.48975 18.2 5.48714 18.2 5.48454 18.2C5.48195 18.2 5.47935 18.2 5.47675 18.2C5.47415 18.2 5.47155 18.2 5.46896 18.2C5.46636 18.2 5.46376 18.2 5.46117 18.2C5.45858 18.2 5.45598 18.2 5.45339 18.2C5.4508 18.2 5.4482 18.2 5.44561 18.2C5.44302 18.2 5.44043 18.2 5.43784 18.2C5.43525 18.2 5.43266 18.2 5.43008 18.2C5.42749 18.2 5.4249 18.2 5.42232 18.2C5.41973 18.2 5.41715 18.2 5.41456 18.2C5.41198 18.2 5.40939 18.2 5.40681 18.2C5.40423 18.2 5.40165 18.2 5.39907 18.2C5.39649 18.2 5.39391 18.2 5.39133 18.2C5.38875 18.2 5.38617 18.2 5.38359 18.2C5.38102 18.2 5.37844 18.2 5.37586 18.2C5.37329 18.2 5.37071 18.2 5.36814 18.2C5.36557 18.2 5.36299 18.2 5.36042 18.2C5.35785 18.2 5.35528 18.2 5.35271 18.2C5.35014 18.2 5.34757 18.2 5.345 18.2C5.34243 18.2 5.33987 18.2 5.3373 18.2C5.33473 18.2 5.33217 18.2 5.3296 18.2C5.32704 18.2 5.32447 18.2 5.32191 18.2C5.31935 18.2 5.31679 18.2 5.31422 18.2C5.31166 18.2 5.3091 18.2 5.30654 18.2C5.30398 18.2 5.30143 18.2 5.29887 18.2C5.29631 18.2 5.29375 18.2 5.2912 18.2C5.28864 18.2 5.28609 18.2 5.28353 18.2C5.28098 18.2 5.27843 18.2 5.27587 18.2C5.27332 18.2 5.27077 18.2 5.26822 18.2C5.26567 18.2 5.26312 18.2 5.26057 18.2C5.25802 18.2 5.25547 18.2 5.25293 18.2C5.25038 18.2 5.24783 18.2 5.24529 18.2C5.24274 18.2 5.2402 18.2 5.23766 18.2C5.23511 18.2 5.23257 18.2 5.23003 18.2C5.22749 18.2 5.22495 18.2 5.22241 18.2C5.21987 18.2 5.21733 18.2 5.21479 18.2C5.21226 18.2 5.20972 18.2 5.20718 18.2C5.20465 18.2 5.20211 18.2 5.19958 18.2C5.19704 18.2 5.19451 18.2 5.19198 18.2C5.18945 18.2 5.18691 18.2 5.18438 18.2C5.18185 18.2 5.17932 18.2 5.1768 18.2C5.17427 18.2 5.17174 18.2 5.16921 18.2C5.16669 18.2 5.16416 18.2 5.16164 18.2C5.15911 18.2 5.15659 18.2 5.15406 18.2C5.15154 18.2 5.14902 18.2 5.1465 18.2C5.14398 18.2 5.14146 18.2 5.13894 18.2C5.13642 18.2 5.1339 18.2 5.13138 18.2C5.12886 18.2 5.12635 18.2 5.12383 18.2C5.12132 18.2 5.1188 18.2 5.11629 18.2C5.11377 18.2 5.11126 18.2 5.10875 18.2C5.10624 18.2 5.10373 18.2 5.10122 18.2C5.09871 18.2 5.0962 18.2 5.09369 18.2C5.09118 18.2 5.08868 18.2 5.08617 18.2C5.08366 18.2 5.08116 18.2 5.07865 18.2C5.07615 18.2 5.07365 18.2 5.07114 18.2C5.06864 18.2 5.06614 18.2 5.06364 18.2C5.06114 18.2 5.05864 18.2 5.05614 18.2C5.05364 18.2 5.05114 18.2 5.04865 18.2C5.04615 18.2 5.04365 18.2 5.04116 18.2C5.03866 18.2 5.03617 18.2 5.03368 18.2C5.03118 18.2 5.02869 18.2 5.0262 18.2C5.02371 18.2 5.02122 18.2 5.01873 18.2C5.01624 18.2 5.01375 18.2 5.01127 18.2C5.00878 18.2 5.00629 18.2 5.00381 18.2C5.00132 18.2 4.99884 18.2 4.99635 18.2C4.99387 18.2 4.99139 18.2 4.98891 18.2C4.98642 18.2 4.98394 18.2 4.98146 18.2C4.97898 18.2 4.97651 18.2 4.97403 18.2C4.97155 18.2 4.96907 18.2 4.9666 18.2C4.96412 18.2 4.96165 18.2 4.95917 18.2C4.9567 18.2 4.95423 18.2 4.95176 18.2C4.94928 18.2 4.94681 18.2 4.94434 18.2C4.94187 18.2 4.9394 18.2 4.93694 18.2C4.93447 18.2 4.932 18.2 4.92953 18.2C4.92707 18.2 4.9246 18.2 4.92214 18.2C4.91968 18.2 4.91721 18.2 4.91475 18.2C4.91229 18.2 4.90983 18.2 4.90737 18.2C4.90491 18.2 4.90245 18.2 4.89999 18.2C4.89753 18.2 4.89507 18.2 4.89262 18.2C4.89016 18.2 4.88771 18.2 4.88525 18.2C4.8828 18.2 4.88034 18.2 4.87789 18.2C4.87544 18.2 4.87299 18.2 4.87054 18.2C4.86809 18.2 4.86564 18.2 4.86319 18.2C4.86074 18.2 4.85829 18.2 4.85585 18.2C4.8534 18.2 4.85095 18.2 4.84851 18.2C4.84606 18.2 4.84362 18.2 4.84118 18.2C4.83874 18.2 4.83629 18.2 4.83385 18.2C4.83141 18.2 4.82897 18.2 4.82654 18.2C4.8241 18.2 4.82166 18.2 4.81922 18.2C4.81679 18.2 4.81435 18.2 4.81192 18.2C4.80948 18.2 4.80705 18.2 4.80462 18.2C4.80218 18.2 4.79975 18.2 4.79732 18.2C4.79489 18.2 4.79246 18.2 4.79003 18.2C4.7876 18.2 4.78518 18.2 4.78275 18.2C4.78032 18.2 4.7779 18.2 4.77547 18.2C4.77305 18.2 4.77062 18.2 4.7682 18.2C4.76578 18.2 4.76336 18.2 4.76094 18.2C4.75852 18.2 4.7561 18.2 4.75368 18.2C4.75126 18.2 4.74884 18.2 4.74643 18.2C4.74401 18.2 4.74159 18.2 4.73918 18.2C4.73677 18.2 4.73435 18.2 4.73194 18.2C4.72953 18.2 4.72712 18.2 4.7247 18.2C4.72229 18.2 4.71989 18.2 4.71748 18.2C4.71507 18.2 4.71266 18.2 4.71025 18.2C4.70785 18.2 4.70544 18.2 4.70304 18.2C4.70063 18.2 4.69823 18.2 4.69583 18.2C4.69343 18.2 4.69103 18.2 4.68863 18.2C4.68622 18.2 4.68383 18.2 4.68143 18.2C4.67903 18.2 4.67663 18.2 4.67424 18.2C4.67184 18.2 4.66944 18.2 4.66705 18.2C4.66466 18.2 4.66226 18.2 4.65987 18.2C4.65748 18.2 4.65509 18.2 4.6527 18.2C4.65031 18.2 4.64792 18.2 4.64553 18.2C4.64314 18.2 4.64076 18.2 4.63837 18.2C4.63599 18.2 4.6336 18.2 4.63122 18.2C4.62883 18.2 4.62645 18.2 4.62407 18.2C4.62169 18.2 4.61931 18.2 4.61693 18.2C4.61455 18.2 4.61217 18.2 4.60979 18.2C4.60741 18.2 4.60504 18.2 4.60266 18.2C4.60029 18.2 4.59791 18.2 4.59554 18.2C4.59316 18.2 4.59079 18.2 4.58842 18.2C4.58605 18.2 4.58368 18.2 4.58131 18.2C4.57894 18.2 4.57657 18.2 4.57421 18.2C4.57184 18.2 4.56947 18.2 4.56711 18.2C4.56474 18.2 4.56238 18.2 4.56002 18.2C4.55765 18.2 4.55529 18.2 4.55293 18.2C4.55057 18.2 4.54821 18.2 4.54585 18.2C4.54349 18.2 4.54114 18.2 4.53878 18.2C4.53642 18.2 4.53407 18.2 4.53171 18.2C4.52936 18.2 4.527 18.2 4.52465 18.2C4.5223 18.2 4.51995 18.2 4.5176 18.2C4.51525 18.2 4.5129 18.2 4.51055 18.2C4.5082 18.2 4.50586 18.2 4.50351 18.2C4.50116 18.2 4.49882 18.2 4.49647 18.2C4.49413 18.2 4.49179 18.2 4.48945 18.2C4.4871 18.2 4.48476 18.2 4.48242 18.2C4.48008 18.2 4.47775 18.2 4.47541 18.2C4.47307 18.2 4.47073 18.2 4.4684 18.2C4.46606 18.2 4.46373 18.2 4.4614 18.2C4.45906 18.2 4.45673 18.2 4.4544 18.2C4.45207 18.2 4.44974 18.2 4.44741 18.2C4.44508 18.2 4.44275 18.2 4.44043 18.2C4.4381 18.2 4.43578 18.2 4.43345 18.2C4.43113 18.2 4.4288 18.2 4.42648 18.2C4.42416 18.2 4.42184 18.2 4.41952 18.2C4.4172 18.2 4.41488 18.2 4.41256 18.2C4.41024 18.2 4.40792 18.2 4.40561 18.2C4.40329 18.2 4.40098 18.2 4.39866 18.2C4.39635 18.2 4.39404 18.2 4.39173 18.2C4.38941 18.2 4.3871 18.2 4.38479 18.2C4.38248 18.2 4.38018 18.2 4.37787 18.2C4.37556 18.2 4.37326 18.2 4.37095 18.2C4.36865 18.2 4.36634 18.2 4.36404 18.2C4.36174 18.2 4.35943 18.2 4.35713 18.2C4.35483 18.2 4.35253 18.2 4.35024 18.2C4.34794 18.2 4.34564 18.2 4.34334 18.2C4.34105 18.2 4.33875 18.2 4.33646 18.2C4.33416 18.2 4.33187 18.2 4.32958 18.2C4.32729 18.2 4.325 18.2 4.32271 18.2L4.32271 19.8C4.325 19.8 4.32729 19.8 4.32958 19.8C4.33187 19.8 4.33416 19.8 4.33646 19.8C4.33875 19.8 4.34105 19.8 4.34334 19.8C4.34564 19.8 4.34794 19.8 4.35024 19.8C4.35253 19.8 4.35483 19.8 4.35713 19.8C4.35943 19.8 4.36174 19.8 4.36404 19.8C4.36634 19.8 4.36865 19.8 4.37095 19.8C4.37326 19.8 4.37556 19.8 4.37787 19.8C4.38018 19.8 4.38248 19.8 4.38479 19.8C4.3871 19.8 4.38941 19.8 4.39173 19.8C4.39404 19.8 4.39635 19.8 4.39866 19.8C4.40098 19.8 4.40329 19.8 4.40561 19.8C4.40792 19.8 4.41024 19.8 4.41256 19.8C4.41488 19.8 4.4172 19.8 4.41952 19.8C4.42184 19.8 4.42416 19.8 4.42648 19.8C4.4288 19.8 4.43113 19.8 4.43345 19.8C4.43577 19.8 4.4381 19.8 4.44043 19.8C4.44275 19.8 4.44508 19.8 4.44741 19.8C4.44974 19.8 4.45207 19.8 4.4544 19.8C4.45673 19.8 4.45906 19.8 4.4614 19.8C4.46373 19.8 4.46606 19.8 4.4684 19.8C4.47073 19.8 4.47307 19.8 4.47541 19.8C4.47775 19.8 4.48008 19.8 4.48242 19.8C4.48476 19.8 4.4871 19.8 4.48945 19.8C4.49179 19.8 4.49413 19.8 4.49647 19.8C4.49882 19.8 4.50116 19.8 4.50351 19.8C4.50586 19.8 4.5082 19.8 4.51055 19.8C4.5129 19.8 4.51525 19.8 4.5176 19.8C4.51995 19.8 4.5223 19.8 4.52465 19.8C4.527 19.8 4.52936 19.8 4.53171 19.8C4.53407 19.8 4.53642 19.8 4.53878 19.8C4.54113 19.8 4.54349 19.8 4.54585 19.8C4.54821 19.8 4.55057 19.8 4.55293 19.8C4.55529 19.8 4.55765 19.8 4.56002 19.8C4.56238 19.8 4.56474 19.8 4.56711 19.8C4.56947 19.8 4.57184 19.8 4.57421 19.8C4.57657 19.8 4.57894 19.8 4.58131 19.8C4.58368 19.8 4.58605 19.8 4.58842 19.8C4.59079 19.8 4.59316 19.8 4.59554 19.8C4.59791 19.8 4.60029 19.8 4.60266 19.8C4.60504 19.8 4.60741 19.8 4.60979 19.8C4.61217 19.8 4.61455 19.8 4.61693 19.8C4.61931 19.8 4.62169 19.8 4.62407 19.8C4.62645 19.8 4.62883 19.8 4.63122 19.8C4.6336 19.8 4.63599 19.8 4.63837 19.8C4.64076 19.8 4.64314 19.8 4.64553 19.8C4.64792 19.8 4.65031 19.8 4.6527 19.8C4.65509 19.8 4.65748 19.8 4.65987 19.8C4.66226 19.8 4.66466 19.8 4.66705 19.8C4.66944 19.8 4.67184 19.8 4.67424 19.8C4.67663 19.8 4.67903 19.8 4.68143 19.8C4.68383 19.8 4.68622 19.8 4.68862 19.8C4.69103 19.8 4.69343 19.8 4.69583 19.8C4.69823 19.8 4.70063 19.8 4.70304 19.8C4.70544 19.8 4.70785 19.8 4.71025 19.8C4.71266 19.8 4.71507 19.8 4.71748 19.8C4.71989 19.8 4.72229 19.8 4.7247 19.8C4.72712 19.8 4.72953 19.8 4.73194 19.8C4.73435 19.8 4.73677 19.8 4.73918 19.8C4.74159 19.8 4.74401 19.8 4.74643 19.8C4.74884 19.8 4.75126 19.8 4.75368 19.8C4.7561 19.8 4.75852 19.8 4.76094 19.8C4.76336 19.8 4.76578 19.8 4.7682 19.8C4.77062 19.8 4.77305 19.8 4.77547 19.8C4.7779 19.8 4.78032 19.8 4.78275 19.8C4.78518 19.8 4.7876 19.8 4.79003 19.8C4.79246 19.8 4.79489 19.8 4.79732 19.8C4.79975 19.8 4.80218 19.8 4.80462 19.8C4.80705 19.8 4.80948 19.8 4.81192 19.8C4.81435 19.8 4.81679 19.8 4.81922 19.8C4.82166 19.8 4.8241 19.8 4.82654 19.8C4.82897 19.8 4.83141 19.8 4.83385 19.8C4.83629 19.8 4.83874 19.8 4.84118 19.8C4.84362 19.8 4.84606 19.8 4.84851 19.8C4.85095 19.8 4.8534 19.8 4.85585 19.8C4.85829 19.8 4.86074 19.8 4.86319 19.8C4.86564 19.8 4.86809 19.8 4.87054 19.8C4.87299 19.8 4.87544 19.8 4.87789 19.8C4.88034 19.8 4.8828 19.8 4.88525 19.8C4.8877 19.8 4.89016 19.8 4.89262 19.8C4.89507 19.8 4.89753 19.8 4.89999 19.8C4.90245 19.8 4.90491 19.8 4.90737 19.8C4.90983 19.8 4.91229 19.8 4.91475 19.8C4.91721 19.8 4.91968 19.8 4.92214 19.8C4.9246 19.8 4.92707 19.8 4.92953 19.8C4.932 19.8 4.93447 19.8 4.93694 19.8C4.9394 19.8 4.94187 19.8 4.94434 19.8C4.94681 19.8 4.94928 19.8 4.95176 19.8C4.95423 19.8 4.9567 19.8 4.95917 19.8C4.96165 19.8 4.96412 19.8 4.9666 19.8C4.96907 19.8 4.97155 19.8 4.97403 19.8C4.97651 19.8 4.97898 19.8 4.98146 19.8C4.98394 19.8 4.98642 19.8 4.98891 19.8C4.99139 19.8 4.99387 19.8 4.99635 19.8C4.99884 19.8 5.00132 19.8 5.00381 19.8C5.00629 19.8 5.00878 19.8 5.01127 19.8C5.01375 19.8 5.01624 19.8 5.01873 19.8C5.02122 19.8 5.02371 19.8 5.0262 19.8C5.02869 19.8 5.03118 19.8 5.03368 19.8C5.03617 19.8 5.03866 19.8 5.04116 19.8C5.04365 19.8 5.04615 19.8 5.04865 19.8C5.05114 19.8 5.05364 19.8 5.05614 19.8C5.05864 19.8 5.06114 19.8 5.06364 19.8C5.06614 19.8 5.06864 19.8 5.07114 19.8C5.07365 19.8 5.07615 19.8 5.07865 19.8C5.08116 19.8 5.08366 19.8 5.08617 19.8C5.08868 19.8 5.09118 19.8 5.09369 19.8C5.0962 19.8 5.09871 19.8 5.10122 19.8C5.10373 19.8 5.10624 19.8 5.10875 19.8C5.11126 19.8 5.11377 19.8 5.11629 19.8C5.1188 19.8 5.12132 19.8 5.12383 19.8C5.12635 19.8 5.12886 19.8 5.13138 19.8C5.1339 19.8 5.13642 19.8 5.13894 19.8C5.14146 19.8 5.14398 19.8 5.1465 19.8C5.14902 19.8 5.15154 19.8 5.15406 19.8C5.15659 19.8 5.15911 19.8 5.16164 19.8C5.16416 19.8 5.16669 19.8 5.16921 19.8C5.17174 19.8 5.17427 19.8 5.1768 19.8C5.17932 19.8 5.18185 19.8 5.18438 19.8C5.18691 19.8 5.18945 19.8 5.19198 19.8C5.19451 19.8 5.19704 19.8 5.19958 19.8C5.20211 19.8 5.20465 19.8 5.20718 19.8C5.20972 19.8 5.21226 19.8 5.21479 19.8C5.21733 19.8 5.21987 19.8 5.22241 19.8C5.22495 19.8 5.22749 19.8 5.23003 19.8C5.23257 19.8 5.23511 19.8 5.23766 19.8C5.2402 19.8 5.24274 19.8 5.24529 19.8C5.24783 19.8 5.25038 19.8 5.25293 19.8C5.25547 19.8 5.25802 19.8 5.26057 19.8C5.26312 19.8 5.26567 19.8 5.26822 19.8C5.27077 19.8 5.27332 19.8 5.27587 19.8C5.27843 19.8 5.28098 19.8 5.28353 19.8C5.28609 19.8 5.28864 19.8 5.2912 19.8C5.29375 19.8 5.29631 19.8 5.29887 19.8C5.30143 19.8 5.30398 19.8 5.30654 19.8C5.3091 19.8 5.31166 19.8 5.31422 19.8C5.31679 19.8 5.31935 19.8 5.32191 19.8C5.32447 19.8 5.32704 19.8 5.3296 19.8C5.33217 19.8 5.33473 19.8 5.3373 19.8C5.33987 19.8 5.34243 19.8 5.345 19.8C5.34757 19.8 5.35014 19.8 5.35271 19.8C5.35528 19.8 5.35785 19.8 5.36042 19.8C5.36299 19.8 5.36557 19.8 5.36814 19.8C5.37071 19.8 5.37329 19.8 5.37586 19.8C5.37844 19.8 5.38102 19.8 5.38359 19.8C5.38617 19.8 5.38875 19.8 5.39133 19.8C5.39391 19.8 5.39649 19.8 5.39907 19.8C5.40165 19.8 5.40423 19.8 5.40681 19.8C5.40939 19.8 5.41198 19.8 5.41456 19.8C5.41715 19.8 5.41973 19.8 5.42232 19.8C5.4249 19.8 5.42749 19.8 5.43008 19.8C5.43266 19.8 5.43525 19.8 5.43784 19.8C5.44043 19.8 5.44302 19.8 5.44561 19.8C5.4482 19.8 5.4508 19.8 5.45339 19.8C5.45598 19.8 5.45858 19.8 5.46117 19.8C5.46376 19.8 5.46636 19.8 5.46896 19.8C5.47155 19.8 5.47415 19.8 5.47675 19.8C5.47935 19.8 5.48194 19.8 5.48454 19.8C5.48714 19.8 5.48975 19.8 5.49235 19.8C5.49495 19.8 5.49755 19.8 5.50015 19.8C5.50276 19.8 5.50536 19.8 5.50797 19.8C5.51057 19.8 5.51318 19.8 5.51578 19.8C5.51839 19.8 5.521 19.8 5.52361 19.8C5.52621 19.8 5.52882 19.8 5.53143 19.8C5.53404 19.8 5.53665 19.8 5.53927 19.8C5.54188 19.8 5.54449 19.8 5.5471 19.8C5.54972 19.8 5.55233 19.8 5.55495 19.8C5.55756 19.8 5.56018 19.8 5.56279 19.8C5.56541 19.8 5.56803 19.8 5.57065 19.8C5.57327 19.8 5.57588 19.8 5.5785 19.8C5.58113 19.8 5.58375 19.8 5.58637 19.8C5.58899 19.8 5.59161 19.8 5.59424 19.8C5.59686 19.8 5.59948 19.8 5.60211 19.8C5.60473 19.8 5.60736 19.8 5.60999 19.8C5.61261 19.8 5.61524 19.8 5.61787 19.8C5.6205 19.8 5.62313 19.8 5.62576 19.8C5.62839 19.8 5.63102 19.8 5.63365 19.8C5.63628 19.8 5.63892 19.8 5.64155 19.8C5.64418 19.8 5.64682 19.8 5.64945 19.8C5.65209 19.8 5.65472 19.8 5.65736 19.8C5.66 19.8 5.66264 19.8 5.66527 19.8C5.66791 19.8 5.67055 19.8 5.67319 19.8C5.67583 19.8 5.67847 19.8 5.68111 19.8C5.68376 19.8 5.6864 19.8 5.68904 19.8C5.69169 19.8 5.69433 19.8 5.69697 19.8C5.69962 19.8 5.70227 19.8 5.70491 19.8C5.70756 19.8 5.71021 19.8 5.71285 19.8C5.7155 19.8 5.71815 19.8 5.7208 19.8C5.72345 19.8 5.7261 19.8 5.72875 19.8C5.73141 19.8 5.73406 19.8 5.73671 19.8C5.73936 19.8 5.74202 19.8 5.74467 19.8C5.74733 19.8 5.74998 19.8 5.75264 19.8C5.7553 19.8 5.75795 19.8 5.76061 19.8C5.76327 19.8 5.76593 19.8 5.76859 19.8C5.77125 19.8 5.77391 19.8 5.77657 19.8C5.77923 19.8 5.78189 19.8 5.78456 19.8C5.78722 19.8 5.78988 19.8 5.79255 19.8C5.79521 19.8 5.79788 19.8 5.80054 19.8C5.80321 19.8 5.80588 19.8 5.80854 19.8C5.81121 19.8 5.81388 19.8 5.81655 19.8C5.81922 19.8 5.82189 19.8 5.82456 19.8C5.82723 19.8 5.8299 19.8 5.83257 19.8C5.83525 19.8 5.83792 19.8 5.84059 19.8C5.84327 19.8 5.84594 19.8 5.84862 19.8C5.85129 19.8 5.85397 19.8 5.85665 19.8C5.85932 19.8 5.862 19.8 5.86468 19.8C5.86736 19.8 5.87004 19.8 5.87272 19.8C5.8754 19.8 5.87808 19.8 5.88076 19.8C5.88344 19.8 5.88613 19.8 5.88881 19.8C5.89149 19.8 5.89418 19.8 5.89686 19.8C5.89955 19.8 5.90223 19.8 5.90492 19.8C5.90761 19.8 5.91029 19.8 5.91298 19.8C5.91567 19.8 5.91836 19.8 5.92105 19.8C5.92374 19.8 5.92643 19.8 5.92912 19.8C5.93181 19.8 5.9345 19.8 5.93719 19.8C5.93989 19.8 5.94258 19.8 5.94528 19.8C5.94797 19.8 5.95066 19.8 5.95336 19.8C5.95606 19.8 5.95875 19.8 5.96145 19.8C5.96415 19.8 5.96685 19.8 5.96954 19.8C5.97224 19.8 5.97494 19.8 5.97764 19.8C5.98034 19.8 5.98304 19.8 5.98575 19.8C5.98845 19.8 5.99115 19.8 5.99385 19.8C5.99656 19.8 5.99926 19.8 6.00197 19.8C6.00467 19.8 6.00738 19.8 6.01008 19.8C6.01279 19.8 6.0155 19.8 6.01821 19.8C6.02091 19.8 6.02362 19.8 6.02633 19.8C6.02904 19.8 6.03175 19.8 6.03446 19.8C6.03717 19.8 6.03989 19.8 6.0426 19.8C6.04531 19.8 6.04802 19.8 6.05074 19.8C6.05345 19.8 6.05617 19.8 6.05888 19.8C6.0616 19.8 6.06431 19.8 6.06703 19.8C6.06975 19.8 6.07247 19.8 6.07518 19.8C6.0779 19.8 6.08062 19.8 6.08334 19.8C6.08606 19.8 6.08878 19.8 6.0915 19.8C6.09423 19.8 6.09695 19.8 6.09967 19.8C6.10239 19.8 6.10512 19.8 6.10784 19.8C6.11057 19.8 6.11329 19.8 6.11602 19.8C6.11874 19.8 6.12147 19.8 6.1242 19.8C6.12692 19.8 6.12965 19.8 6.13238 19.8C6.13511 19.8 6.13784 19.8 6.14057 19.8C6.1433 19.8 6.14603 19.8 6.14876 19.8C6.15149 19.8 6.15423 19.8 6.15696 19.8C6.15969 19.8 6.16243 19.8 6.16516 19.8C6.1679 19.8 6.17063 19.8 6.17337 19.8C6.1761 19.8 6.17884 19.8 6.18158 19.8C6.18432 19.8 6.18706 19.8 6.18979 19.8C6.19253 19.8 6.19527 19.8 6.19801 19.8C6.20075 19.8 6.2035 19.8 6.20624 19.8C6.20898 19.8 6.21172 19.8 6.21447 19.8C6.21721 19.8 6.21995 19.8 6.2227 19.8C6.22544 19.8 6.22819 19.8 6.23093 19.8C6.23368 19.8 6.23643 19.8 6.23917 19.8C6.24192 19.8 6.24467 19.8 6.24742 19.8C6.25017 19.8 6.25292 19.8 6.25567 19.8C6.25842 19.8 6.26117 19.8 6.26392 19.8C6.26667 19.8 6.26943 19.8 6.27218 19.8C6.27493 19.8 6.27769 19.8 6.28044 19.8C6.2832 19.8 6.28595 19.8 6.28871 19.8C6.29147 19.8 6.29422 19.8 6.29698 19.8C6.29974 19.8 6.3025 19.8 6.30526 19.8C6.30801 19.8 6.31077 19.8 6.31353 19.8C6.31629 19.8 6.31906 19.8 6.32182 19.8C6.32458 19.8 6.32734 19.8 6.3301 19.8C6.33287 19.8 6.33563 19.8 6.3384 19.8C6.34116 19.8 6.34393 19.8 6.34669 19.8C6.34946 19.8 6.35222 19.8 6.35499 19.8C6.35776 19.8 6.36053 19.8 6.3633 19.8C6.36607 19.8 6.36883 19.8 6.3716 19.8C6.37437 19.8 6.37715 19.8 6.37992 19.8C6.38269 19.8 6.38546 19.8 6.38823 19.8C6.39101 19.8 6.39378 19.8 6.39655 19.8C6.39933 19.8 6.4021 19.8 6.40488 19.8C6.40765 19.8 6.41043 19.8 6.41321 19.8C6.41599 19.8 6.41876 19.8 6.42154 19.8C6.42432 19.8 6.4271 19.8 6.42988 19.8C6.43266 19.8 6.43544 19.8 6.43822 19.8C6.441 19.8 6.44378 19.8 6.44656 19.8C6.44935 19.8 6.45213 19.8 6.45491 19.8C6.4577 19.8 6.46048 19.8 6.46327 19.8C6.46605 19.8 6.46884 19.8 6.47162 19.8C6.47441 19.8 6.4772 19.8 6.47999 19.8C6.48277 19.8 6.48556 19.8 6.48835 19.8C6.49114 19.8 6.49393 19.8 6.49672 19.8C6.49951 19.8 6.5023 19.8 6.50509 19.8C6.50789 19.8 6.51068 19.8 6.51347 19.8C6.51626 19.8 6.51906 19.8 6.52185 19.8C6.52465 19.8 6.52744 19.8 6.53024 19.8C6.53303 19.8 6.53583 19.8 6.53863 19.8C6.54142 19.8 6.54422 19.8 6.54702 19.8C6.54982 19.8 6.55262 19.8 6.55542 19.8C6.55822 19.8 6.56102 19.8 6.56382 19.8C6.56662 19.8 6.56942 19.8 6.57222 19.8C6.57503 19.8 6.57783 19.8 6.58063 19.8C6.58344 19.8 6.58624 19.8 6.58904 19.8C6.59185 19.8 6.59466 19.8 6.59746 19.8C6.60027 19.8 6.60307 19.8 6.60588 19.8C6.60869 19.8 6.6115 19.8 6.61431 19.8C6.61712 19.8 6.61992 19.8 6.62273 19.8C6.62555 19.8 6.62836 19.8 6.63117 19.8C6.63398 19.8 6.63679 19.8 6.6396 19.8C6.64242 19.8 6.64523 19.8 6.64804 19.8C6.65086 19.8 6.65367 19.8 6.65649 19.8C6.6593 19.8 6.66212 19.8 6.66493 19.8C6.66775 19.8 6.67057 19.8 6.67339 19.8C6.6762 19.8 6.67902 19.8 6.68184 19.8C6.68466 19.8 6.68748 19.8 6.6903 19.8C6.69312 19.8 6.69594 19.8 6.69876 19.8C6.70158 19.8 6.70441 19.8 6.70723 19.8C6.71005 19.8 6.71288 19.8 6.7157 19.8C6.71852 19.8 6.72135 19.8 6.72417 19.8C6.727 19.8 6.72982 19.8 6.73265 19.8C6.73548 19.8 6.7383 19.8 6.74113 19.8C6.74396 19.8 6.74679 19.8 6.74962 19.8C6.75245 19.8 6.75528 19.8 6.75811 19.8C6.76094 19.8 6.76377 19.8 6.7666 19.8C6.76943 19.8 6.77226 19.8 6.7751 19.8C6.77793 19.8 6.78076 19.8 6.7836 19.8C6.78643 19.8 6.78926 19.8 6.7921 19.8C6.79493 19.8 6.79777 19.8 6.80061 19.8C6.80344 19.8 6.80628 19.8 6.80912 19.8C6.81196 19.8 6.81479 19.8 6.81763 19.8C6.82047 19.8 6.82331 19.8 6.82615 19.8C6.82899 19.8 6.83183 19.8 6.83467 19.8C6.83751 19.8 6.84036 19.8 6.8432 19.8C6.84604 19.8 6.84888 19.8 6.85173 19.8C6.85457 19.8 6.85742 19.8 6.86026 19.8C6.86311 19.8 6.86595 19.8 6.8688 19.8C6.87164 19.8 6.87449 19.8 6.87734 19.8C6.88018 19.8 6.88303 19.8 6.88588 19.8C6.88873 19.8 6.89158 19.8 6.89443 19.8C6.89728 19.8 6.90013 19.8 6.90298 19.8C6.90583 19.8 6.90868 19.8 6.91153 19.8C6.91438 19.8 6.91724 19.8 6.92009 19.8C6.92294 19.8 6.9258 19.8 6.92865 19.8C6.93151 19.8 6.93436 19.8 6.93722 19.8C6.94007 19.8 6.94293 19.8 6.94579 19.8C6.94864 19.8 6.9515 19.8 6.95436 19.8C6.95722 19.8 6.96007 19.8 6.96293 19.8C6.96579 19.8 6.96865 19.8 6.97151 19.8C6.97437 19.8 6.97723 19.8 6.98009 19.8C6.98296 19.8 6.98582 19.8 6.98868 19.8C6.99154 19.8 6.99441 19.8 6.99727 19.8C7.00013 19.8 7.003 19.8 7.00586 19.8C7.00873 19.8 7.01159 19.8 7.01446 19.8C7.01732 19.8 7.02019 19.8 7.02306 19.8C7.02592 19.8 7.02879 19.8 7.03166 19.8C7.03453 19.8 7.0374 19.8 7.04027 19.8C7.04314 19.8 7.04601 19.8 7.04888 19.8C7.05175 19.8 7.05462 19.8 7.05749 19.8C7.06036 19.8 7.06323 19.8 7.06611 19.8C7.06898 19.8 7.07185 19.8 7.07473 19.8C7.0776 19.8 7.08048 19.8 7.08335 19.8C7.08623 19.8 7.0891 19.8 7.09198 19.8C7.09485 19.8 7.09773 19.8 7.10061 19.8C7.10348 19.8 7.10636 19.8 7.10924 19.8C7.11212 19.8 7.115 19.8 7.11788 19.8C7.12076 19.8 7.12364 19.8 7.12652 19.8C7.1294 19.8 7.13228 19.8 7.13516 19.8C7.13804 19.8 7.14092 19.8 7.14381 19.8C7.14669 19.8 7.14957 19.8 7.15246 19.8C7.15534 19.8 7.15823 19.8 7.16111 19.8C7.164 19.8 7.16688 19.8 7.16977 19.8C7.17265 19.8 7.17554 19.8 7.17843 19.8C7.18131 19.8 7.1842 19.8 7.18709 19.8C7.18998 19.8 7.19287 19.8 7.19576 19.8C7.19865 19.8 7.20154 19.8 7.20443 19.8C7.20732 19.8 7.21021 19.8 7.2131 19.8C7.21599 19.8 7.21888 19.8 7.22177 19.8C7.22467 19.8 7.22756 19.8 7.23045 19.8C7.23335 19.8 7.23624 19.8 7.23914 19.8C7.24203 19.8 7.24493 19.8 7.24782 19.8C7.25072 19.8 7.25361 19.8 7.25651 19.8C7.25941 19.8 7.2623 19.8 7.2652 19.8C7.2681 19.8 7.271 19.8 7.2739 19.8C7.2768 19.8 7.2797 19.8 7.2826 19.8C7.2855 19.8 7.2884 19.8 7.2913 19.8C7.2942 19.8 7.2971 19.8 7.3 19.8C7.3029 19.8 7.30581 19.8 7.30871 19.8C7.31161 19.8 7.31452 19.8 7.31742 19.8C7.32032 19.8 7.32323 19.8 7.32613 19.8C7.32904 19.8 7.33194 19.8 7.33485 19.8C7.33776 19.8 7.34066 19.8 7.34357 19.8C7.34648 19.8 7.34939 19.8 7.35229 19.8C7.3552 19.8 7.35811 19.8 7.36102 19.8C7.36393 19.8 7.36684 19.8 7.36975 19.8C7.37266 19.8 7.37557 19.8 7.37848 19.8C7.38139 19.8 7.3843 19.8 7.38722 19.8C7.39013 19.8 7.39304 19.8 7.39596 19.8C7.39887 19.8 7.40178 19.8 7.4047 19.8C7.40761 19.8 7.41053 19.8 7.41344 19.8C7.41636 19.8 7.41927 19.8 7.42219 19.8C7.42511 19.8 7.42802 19.8 7.43094 19.8C7.43386 19.8 7.43677 19.8 7.43969 19.8C7.44261 19.8 7.44553 19.8 7.44845 19.8C7.45137 19.8 7.45429 19.8 7.45721 19.8C7.46013 19.8 7.46305 19.8 7.46597 19.8C7.46889 19.8 7.47181 19.8 7.47474 19.8C7.47766 19.8 7.48058 19.8 7.4835 19.8C7.48643 19.8 7.48935 19.8 7.49228 19.8C7.4952 19.8 7.49812 19.8 7.50105 19.8C7.50397 19.8 7.5069 19.8 7.50983 19.8C7.51275 19.8 7.51568 19.8 7.51861 19.8C7.52153 19.8 7.52446 19.8 7.52739 19.8C7.53032 19.8 7.53325 19.8 7.53617 19.8C7.5391 19.8 7.54203 19.8 7.54496 19.8C7.54789 19.8 7.55082 19.8 7.55375 19.8C7.55669 19.8 7.55962 19.8 7.56255 19.8C7.56548 19.8 7.56841 19.8 7.57135 19.8C7.57428 19.8 7.57721 19.8 7.58015 19.8C7.58308 19.8 7.58601 19.8 7.58895 19.8C7.59188 19.8 7.59482 19.8 7.59775 19.8C7.60069 19.8 7.60363 19.8 7.60656 19.8C7.6095 19.8 7.61244 19.8 7.61537 19.8C7.61831 19.8 7.62125 19.8 7.62419 19.8C7.62713 19.8 7.63006 19.8 7.633 19.8C7.63594 19.8 7.63888 19.8 7.64182 19.8C7.64476 19.8 7.6477 19.8 7.65065 19.8C7.65359 19.8 7.65653 19.8 7.65947 19.8C7.66241 19.8 7.66536 19.8 7.6683 19.8C7.67124 19.8 7.67419 19.8 7.67713 19.8C7.68007 19.8 7.68302 19.8 7.68596 19.8C7.68891 19.8 7.69185 19.8 7.6948 19.8C7.69774 19.8 7.70069 19.8 7.70364 19.8C7.70658 19.8 7.70953 19.8 7.71248 19.8C7.71543 19.8 7.71837 19.8 7.72132 19.8C7.72427 19.8 7.72722 19.8 7.73017 19.8C7.73312 19.8 7.73607 19.8 7.73902 19.8C7.74197 19.8 7.74492 19.8 7.74787 19.8C7.75082 19.8 7.75377 19.8 7.75673 19.8C7.75968 19.8 7.76263 19.8 7.76558 19.8C7.76854 19.8 7.77149 19.8 7.77444 19.8C7.7774 19.8 7.78035 19.8 7.78331 19.8C7.78626 19.8 7.78922 19.8 7.79217 19.8C7.79513 19.8 7.79808 19.8 7.80104 19.8C7.804 19.8 7.80695 19.8 7.80991 19.8C7.81287 19.8 7.81582 19.8 7.81878 19.8C7.82174 19.8 7.8247 19.8 7.82766 19.8C7.83062 19.8 7.83358 19.8 7.83654 19.8C7.8395 19.8 7.84246 19.8 7.84542 19.8C7.84838 19.8 7.85134 19.8 7.8543 19.8C7.85726 19.8 7.86022 19.8 7.86319 19.8C7.86615 19.8 7.86911 19.8 7.87207 19.8C7.87504 19.8 7.878 19.8 7.88097 19.8C7.88393 19.8 7.88689 19.8 7.88986 19.8C7.89282 19.8 7.89579 19.8 7.89875 19.8C7.90172 19.8 7.90469 19.8 7.90765 19.8C7.91062 19.8 7.91359 19.8 7.91655 19.8C7.91952 19.8 7.92249 19.8 7.92546 19.8C7.92843 19.8 7.93139 19.8 7.93436 19.8C7.93733 19.8 7.9403 19.8 7.94327 19.8C7.94624 19.8 7.94921 19.8 7.95218 19.8C7.95515 19.8 7.95812 19.8 7.9611 19.8C7.96407 19.8 7.96704 19.8 7.97001 19.8C7.97298 19.8 7.97596 19.8 7.97893 19.8C7.9819 19.8 7.98488 19.8 7.98785 19.8C7.99082 19.8 7.9938 19.8 7.99677 19.8C7.99975 19.8 8.00272 19.8 8.0057 19.8C8.00867 19.8 8.01165 19.8 8.01463 19.8C8.0176 19.8 8.02058 19.8 8.02356 19.8C8.02653 19.8 8.02951 19.8 8.03249 19.8C8.03547 19.8 8.03844 19.8 8.04142 19.8C8.0444 19.8 8.04738 19.8 8.05036 19.8C8.05334 19.8 8.05632 19.8 8.0593 19.8C8.06228 19.8 8.06526 19.8 8.06824 19.8C8.07122 19.8 8.0742 19.8 8.07718 19.8C8.08017 19.8 8.08315 19.8 8.08613 19.8C8.08911 19.8 8.0921 19.8 8.09508 19.8C8.09806 19.8 8.10105 19.8 8.10403 19.8C8.10701 19.8 8.11 19.8 8.11298 19.8C8.11597 19.8 8.11895 19.8 8.12194 19.8C8.12492 19.8 8.12791 19.8 8.1309 19.8C8.13388 19.8 8.13687 19.8 8.13986 19.8C8.14284 19.8 8.14583 19.8 8.14882 19.8C8.15181 19.8 8.15479 19.8 8.15778 19.8C8.16077 19.8 8.16376 19.8 8.16675 19.8C8.16974 19.8 8.17273 19.8 8.17572 19.8C8.17871 19.8 8.1817 19.8 8.18469 19.8C8.18768 19.8 8.19067 19.8 8.19366 19.8C8.19666 19.8 8.19965 19.8 8.20264 19.8C8.20563 19.8 8.20862 19.8 8.21162 19.8C8.21461 19.8 8.2176 19.8 8.2206 19.8C8.22359 19.8 8.22658 19.8 8.22958 19.8C8.23257 19.8 8.23557 19.8 8.23856 19.8C8.24156 19.8 8.24455 19.8 8.24755 19.8C8.25055 19.8 8.25354 19.8 8.25654 19.8C8.25953 19.8 8.26253 19.8 8.26553 19.8C8.26853 19.8 8.27152 19.8 8.27452 19.8C8.27752 19.8 8.28052 19.8 8.28352 19.8C8.28651 19.8 8.28951 19.8 8.29251 19.8C8.29551 19.8 8.29851 19.8 8.30151 19.8C8.30451 19.8 8.30751 19.8 8.31051 19.8C8.31351 19.8 8.31651 19.8 8.31952 19.8C8.32252 19.8 8.32552 19.8 8.32852 19.8C8.33152 19.8 8.33453 19.8 8.33753 19.8C8.34053 19.8 8.34353 19.8 8.34654 19.8C8.34954 19.8 8.35254 19.8 8.35555 19.8C8.35855 19.8 8.36156 19.8 8.36456 19.8C8.36757 19.8 8.37057 19.8 8.37358 19.8C8.37658 19.8 8.37959 19.8 8.38259 19.8C8.3856 19.8 8.38861 19.8 8.39161 19.8C8.39462 19.8 8.39763 19.8 8.40064 19.8C8.40364 19.8 8.40665 19.8 8.40966 19.8C8.41267 19.8 8.41568 19.8 8.41868 19.8C8.42169 19.8 8.4247 19.8 8.42771 19.8C8.43072 19.8 8.43373 19.8 8.43674 19.8C8.43975 19.8 8.44276 19.8 8.44577 19.8C8.44878 19.8 8.45179 19.8 8.4548 19.8C8.45782 19.8 8.46083 19.8 8.46384 19.8C8.46685 19.8 8.46986 19.8 8.47288 19.8C8.47589 19.8 8.4789 19.8 8.48192 19.8C8.48493 19.8 8.48794 19.8 8.49096 19.8C8.49397 19.8 8.49698 19.8 8.5 19.8L8.5 18.2ZM4.32271 1.8C5.495 1.8 6.95658 1.8 8.5 1.8L8.5 0.2C6.95658 0.2 5.495 0.2 4.32271 0.2L4.32271 1.8ZM2.18051 16.2826C1.99904 14.4004 1.8 11.8981 1.8 10L0.2 10C0.2 11.9803 0.405831 14.5478 0.587898 16.4361L2.18051 16.2826ZM1.8 10C1.8 8.10193 1.99904 5.59957 2.18051 3.71743L0.587898 3.56388C0.405831 5.45221 0.2 8.01967 0.2 10L1.8 10ZM4.32271 0.2C2.40452 0.2 0.774027 1.6334 0.587898 3.56388L2.18051 3.71743C2.28551 2.62839 3.20737 1.8 4.32271 1.8L4.32271 0.2ZM4.32271 18.2C3.20737 18.2 2.28551 17.3716 2.18051 16.2826L0.587898 16.4361C0.774027 18.3666 2.40452 19.8 4.32271 19.8L4.32271 18.2Z" fill="#9197B3"/>
</svg>
