<svg width="22" height="21" viewBox="0 0 22 21" fill="none" xmlns="http://www.w3.org/2000/svg">
<path d="M9.7516 14.3594V16.3894C9.7516 18.1094 8.15158 19.4994 6.18158 19.4994C4.21158 19.4994 2.60156 18.1094 2.60156 16.3894V14.3594C2.60156 16.0794 4.20158 17.2994 6.18158 17.2994C8.15158 17.2994 9.7516 16.0694 9.7516 14.3594Z" stroke="#9197B3" stroke-width="1.5" stroke-linecap="round" stroke-linejoin="round"/>
<path d="M9.74985 11.6078C9.74985 12.1078 9.60985 12.5678 9.36985 12.9678C8.77981 13.9378 7.56979 14.5478 6.16979 14.5478C4.76979 14.5478 3.55978 13.9278 2.96978 12.9678C2.72978 12.5678 2.58984 12.1078 2.58984 11.6078C2.58984 10.7478 2.98982 9.97781 3.62982 9.41781C4.27982 8.84781 5.16978 8.50781 6.15978 8.50781C7.14978 8.50781 8.03981 8.85781 8.68981 9.41781C9.34985 9.96781 9.74985 10.7478 9.74985 11.6078Z" stroke="#9197B3" stroke-width="1.5" stroke-linecap="round" stroke-linejoin="round"/>
<path d="M9.7516 11.61V14.36C9.7516 16.08 8.15158 17.3 6.18158 17.3C4.21158 17.3 2.60156 16.07 2.60156 14.36V11.61C2.60156 9.89 4.20158 8.5 6.18158 8.5C7.17158 8.5 8.06161 8.85 8.71161 9.41C9.3516 9.97 9.7516 10.75 9.7516 11.61Z" stroke="#9197B3" stroke-width="1.5" stroke-linecap="round" stroke-linejoin="round"/>
<path d="M21.0002 8.46917V10.5293C21.0002 11.0793 20.5602 11.5292 20.0002 11.5492H18.0401C16.9601 11.5492 15.9702 10.7592 15.8802 9.67917C15.8202 9.04917 16.0601 8.45917 16.4801 8.04917C16.8501 7.66917 17.3602 7.44922 17.9202 7.44922H20.0002C20.5602 7.46922 21.0002 7.91917 21.0002 8.46917Z" stroke="#9197B3" stroke-width="1.5" stroke-linecap="round" stroke-linejoin="round"/>
<path d="M1 8V6C1 3.28 2.64 1.38 5.19 1.06C5.45 1.02 5.72 1 6 1H15C15.26 1 15.51 1.00999 15.75 1.04999C18.33 1.34999 20 3.26 20 6V7.45001H17.92C17.36 7.45001 16.85 7.67 16.48 8.05C16.06 8.46 15.82 9.05 15.88 9.68C15.97 10.76 16.96 11.55 18.04 11.55H20V13C20 16 18 18 15 18H12.5" stroke="#9197B3" stroke-width="1.5" stroke-linecap="round" stroke-linejoin="round"/>
</svg>
