<svg width="24" height="24" viewBox="0 0 24 24" fill="none" xmlns="http://www.w3.org/2000/svg">
<g clip-path="url(#clip0_48_560)">
<path d="M6.39992 15.2533V7.06667H16.2666L17.3199 6H5.33325V15.2533H6.39992Z" fill="#9197B3"/>
<path d="M4.00008 4.66665H20.0001V15.3333H21.3334V4.33331C21.3334 4.0681 21.2281 3.81374 21.0405 3.62621C20.853 3.43867 20.5986 3.33331 20.3334 3.33331H3.66675C3.40153 3.33331 3.14718 3.43867 2.95964 3.62621C2.7721 3.81374 2.66675 4.0681 2.66675 4.33331V15.3333H4.00008V4.66665Z" fill="#9197B3"/>
<path d="M0.666748 16.6667V18.9334C0.666748 19.3931 0.849367 19.8339 1.17443 20.159C1.49949 20.4841 1.94037 20.6667 2.40008 20.6667H21.5601C22.0198 20.6667 22.4607 20.4841 22.7857 20.159C23.1108 19.8339 23.2934 19.3931 23.2934 18.9334V16.6667H0.666748ZM22.0001 18.9334C22.0001 19.0394 21.9579 19.1412 21.8829 19.2162C21.8079 19.2912 21.7062 19.3334 21.6001 19.3334H2.37341C2.26733 19.3334 2.16559 19.2912 2.09057 19.2162C2.01556 19.1412 1.97341 19.0394 1.97341 18.9334V17.6867H8.60675C8.69009 17.8833 8.82921 18.0513 9.00693 18.1697C9.18464 18.2882 9.39317 18.3521 9.60675 18.3534H14.3601C14.5737 18.3521 14.7822 18.2882 14.9599 18.1697C15.1376 18.0513 15.2767 17.8833 15.3601 17.6867H22.0001V18.9334Z" fill="#9197B3"/>
</g>
<defs>
<clipPath id="clip0_48_560">
<rect width="24" height="24" fill="white"/>
</clipPath>
</defs>
</svg>
