<svg width="22" height="21" viewBox="0 0 22 21" fill="none" xmlns="http://www.w3.org/2000/svg">
<path d="M6.75 20.63C6.47 20.63 6.17998 20.56 5.91998 20.42C5.34998 20.12 5 19.52 5 18.88V17.4601C1.98 17.1501 0 14.93 0 11.75V5.75C0 2.31 2.31 0 5.75 0H15.75C19.19 0 21.5 2.31 21.5 5.75V11.75C21.5 15.19 19.19 17.5 15.75 17.5H11.98L7.71997 20.3401C7.42997 20.5301 7.09 20.63 6.75 20.63ZM5.75 1.48999C3.17 1.48999 1.5 3.15999 1.5 5.73999V11.7401C1.5 14.3201 3.17 15.9901 5.75 15.9901C6.16 15.9901 6.5 16.3301 6.5 16.7401V18.8701C6.5 19.0001 6.58 19.0601 6.63 19.0901C6.68001 19.1201 6.78001 19.1501 6.89001 19.0801L11.34 16.1201C11.46 16.0401 11.61 15.9901 11.76 15.9901H15.76C18.34 15.9901 20.01 14.3201 20.01 11.7401V5.73999C20.01 3.15999 18.34 1.48999 15.76 1.48999H5.75Z" fill="#9197B3"/>
<path d="M10.7498 10.4219C10.3398 10.4219 9.9998 10.0819 9.9998 9.67192V9.46192C9.9998 8.30192 10.8498 7.73191 11.1698 7.51191C11.5398 7.26191 11.6598 7.09192 11.6598 6.83192C11.6598 6.33192 11.2498 5.92188 10.7498 5.92188C10.2498 5.92188 9.8398 6.33192 9.8398 6.83192C9.8398 7.24192 9.4998 7.58192 9.0898 7.58192C8.67984 7.58192 8.33984 7.24192 8.33984 6.83192C8.33984 5.50192 9.4198 4.42188 10.7498 4.42188C12.0798 4.42188 13.1598 5.50192 13.1598 6.83192C13.1598 7.97192 12.3198 8.54192 12.0098 8.75192C11.6198 9.01192 11.4998 9.18192 11.4998 9.46192V9.67192C11.4998 10.0919 11.1598 10.4219 10.7498 10.4219Z" fill="#9197B3"/>
<path d="M10.75 12.9102C10.33 12.9102 10 12.5702 10 12.1602C10 11.7502 10.34 11.4102 10.75 11.4102C11.16 11.4102 11.5 11.7502 11.5 12.1602C11.5 12.5702 11.17 12.9102 10.75 12.9102Z" fill="#9197B3"/>
</svg>
