<svg width="19" height="19" viewBox="0 0 19 19" fill="none" xmlns="http://www.w3.org/2000/svg">
<path d="M18.3801 10.0015C18.7791 9.48963 19 8.86253 19 8.21006C19 7.17487 18.4039 6.19501 17.4444 5.6486C17.1974 5.50795 16.9161 5.43392 16.6297 5.43418H10.9345L11.077 2.60067C11.1103 1.91592 10.8609 1.26576 10.3764 0.770069C10.1386 0.525746 9.85174 0.331354 9.53352 0.198905C9.2153 0.066457 8.87248 -0.0012335 8.52625 1.70153e-05C7.29125 1.70153e-05 6.19875 0.806957 5.871 1.96203L3.83087 9.13227H0.76C0.339625 9.13227 0 9.46197 0 9.87005V18.2622C0 18.6703 0.339625 19 0.76 19H15.0409C15.2594 19 15.4731 18.9585 15.6702 18.8755C16.8007 18.4075 17.5299 17.3354 17.5299 16.1457C17.5299 15.8552 17.4871 15.5694 17.4016 15.2927C17.8006 14.7809 18.0215 14.1537 18.0215 13.5013C18.0215 13.2108 17.9788 12.9249 17.8932 12.6482C18.2922 12.1364 18.5131 11.5093 18.5131 10.8568C18.5084 10.5663 18.4656 10.2781 18.3801 10.0015ZM1.71 17.34V10.7923H3.63375V17.34H1.71ZM16.8245 9.20144L16.3044 9.63949L16.6345 10.2251C16.7433 10.418 16.7997 10.6346 16.7984 10.8545C16.7984 11.2349 16.6274 11.5969 16.3329 11.8459L15.8127 12.284L16.1429 12.8696C16.2516 13.0625 16.308 13.2791 16.3067 13.499C16.3067 13.8794 16.1357 14.2414 15.8412 14.4904L15.3211 14.9284L15.6512 15.514C15.76 15.7069 15.8164 15.9235 15.8151 16.1434C15.8151 16.6599 15.5016 17.1256 15.0171 17.3377H5.15375V10.7185L7.51687 2.407C7.57781 2.19397 7.70862 2.00603 7.88947 1.87165C8.07033 1.73727 8.29138 1.66378 8.51912 1.66231C8.69963 1.66231 8.87775 1.71304 9.02025 1.81679C9.25537 1.9874 9.38125 2.24562 9.367 2.51998L9.139 7.09417H16.606C17.0287 7.34548 17.29 7.7697 17.29 8.21006C17.29 8.59047 17.119 8.95014 16.8245 9.20144Z" fill="#1DBA5A"/>
</svg>
