<svg width="145" height="39" viewBox="0 0 145 39" fill="none" xmlns="http://www.w3.org/2000/svg">
<path d="M11.1066 24.5147C11.1066 23.7598 10.8362 23.1715 10.2954 22.75C9.76437 22.3284 8.8253 21.8921 7.47815 21.4411C6.131 20.9902 5.02968 20.5539 4.17419 20.1323C1.3914 18.7696 -6.26682e-07 16.897 0 14.5147C3.12052e-07 13.3284 0.344163 12.2843 1.03249 11.3823C1.73065 10.4706 2.71397 9.7647 3.98245 9.2647C5.25093 8.7549 6.67675 8.5 8.25989 8.5C9.80371 8.5 11.1853 8.77451 12.4046 9.32353C13.0036 9.5911 13.5373 9.91455 14.0055 10.2939C14.3197 10.0755 14.6579 9.87952 15.0202 9.70592C16.2887 9.09808 17.7882 8.79416 19.5189 8.79416C22.1345 8.79416 24.1945 9.47063 25.699 10.8236C27.2035 12.1765 27.9705 14.0294 28 16.3824L28 30.5L22.7933 30.5L22.7933 16.2794C22.7343 13.9363 21.6428 12.7647 19.5189 12.7647C18.447 12.7647 17.6358 13.0589 17.0851 13.6471C16.5345 14.2353 16.2592 15.1912 16.2592 16.5147L16.2591 20.0493C15.4025 19.0195 14.2287 18.1581 12.8049 17.4606C12.297 17.2103 11.7216 16.9607 11.082 16.7111V16.4853C11.082 16.0212 11.1109 15.5751 11.1689 15.147H11.1214C11.1214 14.2745 10.8509 13.598 10.3101 13.1176C9.77912 12.6372 9.05638 12.3971 8.1419 12.3971C7.21757 12.3971 6.485 12.6029 5.94417 13.0147C5.41318 13.4167 5.14768 13.9314 5.14768 14.5588C5.14768 15.1078 5.44268 15.6078 6.03267 16.0588C6.62266 16.5 7.66007 16.9608 9.14488 17.4412C10.6297 17.9117 11.849 18.4215 12.8028 18.9706C15.1235 20.3039 16.2838 22.1421 16.2838 24.4853C16.2838 26.3578 15.5758 27.8284 14.1598 28.897C12.7438 29.9656 10.8018 30.5 8.33364 30.5L8.33364 26.6176C9.18913 26.6176 9.8627 26.4362 10.3544 26.0735C10.8559 25.7009 11.1066 25.1813 11.1066 24.5147Z" fill="#5932EA"/>
<path d="M48.09 19.692C49.1127 19.8827 49.9533 20.394 50.612 21.226C51.2707 22.058 51.6 23.0113 51.6 24.086C51.6 25.0567 51.3573 25.9147 50.872 26.66C50.404 27.388 49.7193 27.96 48.818 28.376C47.9167 28.792 46.8507 29 45.62 29H37.794V10.852H45.282C46.5127 10.852 47.57 11.0513 48.454 11.45C49.3553 11.8487 50.0313 12.4033 50.482 13.114C50.95 13.8247 51.184 14.6307 51.184 15.532C51.184 16.5893 50.898 17.4733 50.326 18.184C49.7713 18.8947 49.026 19.3973 48.09 19.692ZM41.434 18.34H44.762C45.6287 18.34 46.296 18.1493 46.764 17.768C47.232 17.3693 47.466 16.806 47.466 16.078C47.466 15.35 47.232 14.7867 46.764 14.388C46.296 13.9893 45.6287 13.79 44.762 13.79H41.434V18.34ZM45.1 26.036C45.984 26.036 46.6687 25.828 47.154 25.412C47.6567 24.996 47.908 24.4067 47.908 23.644C47.908 22.864 47.648 22.2573 47.128 21.824C46.608 21.3733 45.906 21.148 45.022 21.148H41.434V26.036H45.1ZM58.401 16.832C58.869 16.0693 59.4757 15.4713 60.221 15.038C60.9837 14.6047 61.8504 14.388 62.821 14.388V18.21H61.859C60.715 18.21 59.8484 18.4787 59.259 19.016C58.687 19.5533 58.401 20.4893 58.401 21.824V29H54.761V14.596H58.401V16.832ZM64.5968 21.746C64.5968 20.29 64.8828 18.9987 65.4548 17.872C66.0441 16.7453 66.8328 15.8787 67.8208 15.272C68.8261 14.6653 69.9441 14.362 71.1748 14.362C72.2494 14.362 73.1854 14.5787 73.9828 15.012C74.7974 15.4453 75.4474 15.9913 75.9328 16.65V14.596H79.5988V29H75.9328V26.894C75.4648 27.57 74.8148 28.1333 73.9828 28.584C73.1681 29.0173 72.2234 29.234 71.1488 29.234C69.9354 29.234 68.8261 28.922 67.8208 28.298C66.8328 27.674 66.0441 26.7987 65.4548 25.672C64.8828 24.528 64.5968 23.2193 64.5968 21.746ZM75.9328 21.798C75.9328 20.914 75.7594 20.16 75.4128 19.536C75.0661 18.8947 74.5981 18.4093 74.0088 18.08C73.4194 17.7333 72.7868 17.56 72.1108 17.56C71.4348 17.56 70.8108 17.7247 70.2388 18.054C69.6668 18.3833 69.1988 18.8687 68.8348 19.51C68.4881 20.134 68.3148 20.8793 68.3148 21.746C68.3148 22.6127 68.4881 23.3753 68.8348 24.034C69.1988 24.6753 69.6668 25.1693 70.2388 25.516C70.8281 25.8627 71.4521 26.036 72.1108 26.036C72.7868 26.036 73.4194 25.8713 74.0088 25.542C74.5981 25.1953 75.0661 24.71 75.4128 24.086C75.7594 23.4447 75.9328 22.682 75.9328 21.798ZM85.2598 12.88C84.6185 12.88 84.0812 12.6807 83.6478 12.282C83.2318 11.866 83.0238 11.3547 83.0238 10.748C83.0238 10.1413 83.2318 9.63867 83.6478 9.24C84.0812 8.824 84.6185 8.616 85.2598 8.616C85.9012 8.616 86.4298 8.824 86.8458 9.24C87.2792 9.63867 87.4958 10.1413 87.4958 10.748C87.4958 11.3547 87.2792 11.866 86.8458 12.282C86.4298 12.6807 85.9012 12.88 85.2598 12.88ZM87.0538 14.596V29H83.4138V14.596H87.0538ZM98.8922 14.388C100.608 14.388 101.995 14.934 103.052 16.026C104.11 17.1007 104.638 18.6087 104.638 20.55V29H100.998V21.044C100.998 19.9 100.712 19.0247 100.14 18.418C99.5682 17.794 98.7882 17.482 97.8002 17.482C96.7948 17.482 95.9975 17.794 95.4082 18.418C94.8362 19.0247 94.5502 19.9 94.5502 21.044V29H90.9102V14.596H94.5502V16.39C95.0355 15.766 95.6508 15.2807 96.3962 14.934C97.1588 14.57 97.9908 14.388 98.8922 14.388ZM119.566 10.852V13.79H112V18.444H117.798V21.33H112V29H108.36V10.852H119.566ZM126.047 9.76V29H122.407V9.76H126.047ZM136.299 29.234C134.912 29.234 133.664 28.9307 132.555 28.324C131.446 27.7 130.57 26.8247 129.929 25.698C129.305 24.5713 128.993 23.2713 128.993 21.798C128.993 20.3247 129.314 19.0247 129.955 17.898C130.614 16.7713 131.506 15.9047 132.633 15.298C133.76 14.674 135.016 14.362 136.403 14.362C137.79 14.362 139.046 14.674 140.173 15.298C141.3 15.9047 142.184 16.7713 142.825 17.898C143.484 19.0247 143.813 20.3247 143.813 21.798C143.813 23.2713 143.475 24.5713 142.799 25.698C142.14 26.8247 141.239 27.7 140.095 28.324C138.968 28.9307 137.703 29.234 136.299 29.234ZM136.299 26.062C136.958 26.062 137.573 25.906 138.145 25.594C138.734 25.2647 139.202 24.7793 139.549 24.138C139.896 23.4967 140.069 22.7167 140.069 21.798C140.069 20.4287 139.705 19.38 138.977 18.652C138.266 17.9067 137.391 17.534 136.351 17.534C135.311 17.534 134.436 17.9067 133.725 18.652C133.032 19.38 132.685 20.4287 132.685 21.798C132.685 23.1673 133.023 24.2247 133.699 24.97C134.392 25.698 135.259 26.062 136.299 26.062Z" fill="#1E2029"/>
</svg>
