<svg width="28" height="22" viewBox="0 0 28 22" fill="none" xmlns="http://www.w3.org/2000/svg">
<path d="M11.1066 16.0147C11.1066 15.2598 10.8362 14.6715 10.2954 14.25C9.76437 13.8284 8.8253 13.3921 7.47815 12.9411C6.131 12.4902 5.02968 12.0539 4.17419 11.6323C1.3914 10.2696 -6.26682e-07 8.39704 0 6.01469C3.12052e-07 4.82842 0.344163 3.7843 1.03249 2.88234C1.73065 1.97058 2.71397 1.2647 3.98245 0.764703C5.25093 0.254901 6.67675 -4.13971e-07 8.25989 0C9.80371 4.03687e-07 11.1853 0.27451 12.4046 0.823529C13.0036 1.0911 13.5373 1.41455 14.0055 1.7939C14.3197 1.57551 14.6579 1.37952 15.0202 1.20592C16.2887 0.598082 17.7882 0.294161 19.5189 0.294162C22.1345 0.294162 24.1945 0.970632 25.699 2.32357C27.2035 3.67651 27.9705 5.52945 28 7.88238L28 22L22.7933 22L22.7933 7.77944C22.7343 5.43631 21.6428 4.26474 19.5189 4.26474C18.447 4.26474 17.6358 4.55886 17.0851 5.14709C16.5345 5.73533 16.2592 6.69121 16.2592 8.01473L16.2591 11.5493C15.4025 10.5195 14.2287 9.65806 12.8049 8.96058C12.297 8.71034 11.7216 8.46073 11.082 8.21112V7.98532C11.082 7.52123 11.1109 7.07514 11.1689 6.64705H11.1214C11.1214 5.7745 10.8509 5.09803 10.3101 4.61764C9.77912 4.13725 9.05638 3.89705 8.1419 3.89705C7.21757 3.89705 6.485 4.10293 5.94417 4.5147C5.41318 4.91666 5.14768 5.43136 5.14768 6.05881C5.14768 6.60783 5.44268 7.10783 6.03267 7.55881C6.62266 7.99998 7.66007 8.46077 9.14488 8.94116C10.6297 9.41175 11.849 9.92155 12.8028 10.4706C15.1235 11.8039 16.2838 13.6421 16.2838 15.9853C16.2838 17.8578 15.5758 19.3284 14.1598 20.397C12.7438 21.4656 10.8018 22 8.33364 22L8.33364 18.1176C9.18913 18.1176 9.8627 17.9362 10.3544 17.5735C10.8559 17.2009 11.1066 16.6813 11.1066 16.0147Z" fill="#5932EA"/>
</svg>
