<svg width="12" height="11" viewBox="0 0 12 11" fill="none" xmlns="http://www.w3.org/2000/svg">
<circle cx="5.96875" cy="5.5" r="5.5" fill="white"/>
<path d="M3.87675 8V7.256C4.21808 6.97333 4.54875 6.69333 4.86875 6.416C5.19408 6.13867 5.48208 5.864 5.73275 5.592C5.98875 5.32 6.19142 5.056 6.34075 4.8C6.49542 4.53867 6.57275 4.28533 6.57275 4.04C6.57275 3.81067 6.50875 3.608 6.38075 3.432C6.25808 3.256 6.05275 3.168 5.76475 3.168C5.47142 3.168 5.25008 3.264 5.10075 3.456C4.95142 3.648 4.87675 3.88 4.87675 4.152H3.88475C3.89542 3.74133 3.98608 3.4 4.15675 3.128C4.32742 2.85067 4.55408 2.64533 4.83675 2.512C5.11942 2.37333 5.43675 2.304 5.78875 2.304C6.35942 2.304 6.80208 2.46133 7.11675 2.776C7.43675 3.08533 7.59675 3.488 7.59675 3.984C7.59675 4.29333 7.52475 4.59467 7.38075 4.888C7.24208 5.18133 7.05808 5.464 6.82875 5.736C6.59942 6.008 6.35142 6.264 6.08475 6.504C5.81808 6.73867 5.55942 6.95733 5.30875 7.16H7.73275V8H3.87675Z" fill="#5932EA"/>
</svg>
