<svg width="22" height="22" viewBox="0 0 22 22" fill="none" xmlns="http://www.w3.org/2000/svg">
<path d="M8 22H14C19.43 22 21.75 19.68 21.75 14.25V9C21.75 8.58579 21.4142 8.25 21 8.25C20.5858 8.25 20.25 8.58579 20.25 9V14.25C20.25 18.86 18.61 20.5 14 20.5H8C3.39 20.5 1.75 18.86 1.75 14.25V8.25C1.75 3.64 3.39 2 8 2H9.48449C9.89864 2 10.2344 1.66426 10.2344 1.25011C10.2344 0.835964 9.89864 0.500229 9.48449 0.500229H7.90687C2.54346 0.526717 0.25 2.85115 0.25 8.25V14.25C0.25 19.68 2.57 22 8 22Z" fill="#9197B3"/>
<path d="M17.25 14.7767C17.25 15.1107 16.9793 15.3837 16.6453 15.3837H5.85465C5.52071 15.3837 5.25 15.1107 5.25 14.7767C5.25 14.4454 5.51863 14.1744 5.85 14.1744V9.9606C5.85 6.9446 8.268 4.5 11.25 4.5C14.232 4.5 16.65 6.9446 16.65 9.9606V14.1744C16.9814 14.1744 17.25 14.4454 17.25 14.7767ZM7.05 14.1744H15.45V9.9606C15.45 7.61274 13.5696 5.7093 11.25 5.7093C8.9304 5.7093 7.05 7.61274 7.05 9.9606V14.1744ZM10.0671 16.9178C9.7291 16.481 10.1977 15.9884 10.75 15.9884H11.75C12.3023 15.9884 12.7709 16.481 12.4329 16.9178C12.3953 16.9665 12.3544 17.0131 12.3107 17.0573C12.0294 17.3407 11.6478 17.5 11.25 17.5C10.8522 17.5 10.4706 17.3407 10.1893 17.0573C10.1456 17.0131 10.1047 16.9665 10.0671 16.9178Z" fill="#9197B3"/>
</svg>
