<svg width="22" height="22" viewBox="0 0 22 22" fill="none" xmlns="http://www.w3.org/2000/svg">
<path d="M13.75 21.5H7.75C2.32 21.5 0 19.18 0 13.75V7.75C0 2.32 2.32 0 7.75 0H13.75C19.18 0 21.5 2.32 21.5 7.75V13.75C21.5 19.18 19.18 21.5 13.75 21.5ZM7.75 1.5C3.14 1.5 1.5 3.14 1.5 7.75V13.75C1.5 18.36 3.14 20 7.75 20H13.75C18.36 20 20 18.36 20 13.75V7.75C20 3.14 18.36 1.5 13.75 1.5H7.75Z" fill="#9197B3"/>
<path d="M10.7506 11.8268C10.6206 11.8268 10.4906 11.7968 10.3706 11.7268L5.07061 8.66677C4.71061 8.45677 4.59059 7.99677 4.80059 7.64677C5.01059 7.28677 5.47061 7.16677 5.82061 7.37677L10.7406 10.2268L15.6306 7.39677C15.9906 7.18677 16.4506 7.31677 16.6506 7.66677C16.8506 8.01677 16.7306 8.48677 16.3806 8.68677L11.1206 11.7268C11.0106 11.7868 10.8806 11.8268 10.7506 11.8268Z" fill="#9197B3"/>
<path d="M10.75 17.272C10.34 17.272 10 16.932 10 16.522V11.082C10 10.672 10.34 10.332 10.75 10.332C11.16 10.332 11.5 10.672 11.5 11.082V16.522C11.5 16.932 11.16 17.272 10.75 17.272Z" fill="#9197B3"/>
<path d="M10.7502 17.4969C10.1702 17.4969 9.6003 17.3669 9.1403 17.1169L5.94025 15.3369C4.98025 14.8069 4.24023 13.5369 4.24023 12.4369V9.04688C4.24023 7.95688 4.99025 6.68687 5.94025 6.14687L9.1403 4.36687C10.0603 3.85688 11.4402 3.85688 12.3602 4.36687L15.5602 6.14687C16.5202 6.67687 17.2603 7.94689 17.2603 9.04688V12.4369C17.2603 13.5269 16.5102 14.7969 15.5602 15.3369L12.3602 17.1169C11.9002 17.3769 11.3302 17.4969 10.7502 17.4969ZM10.7502 5.49688C10.4202 5.49688 10.1002 5.55687 9.8702 5.68687L6.67026 7.46687C6.18026 7.73687 5.74023 8.49687 5.74023 9.04688V12.4369C5.74023 12.9969 6.18026 13.7469 6.67026 14.0169L9.8702 15.7969C10.3302 16.0569 11.1702 16.0569 11.6302 15.7969L14.8302 14.0169C15.3202 13.7469 15.7603 12.9869 15.7603 12.4369V9.04688C15.7603 8.48689 15.3202 7.73687 14.8302 7.46687L11.6302 5.68687C11.4002 5.55687 11.0802 5.49688 10.7502 5.49688Z" fill="#9197B3"/>
</svg>
