<svg width="16" height="19" viewBox="0 0 16 19" fill="none" xmlns="http://www.w3.org/2000/svg">
<path d="M9.875 12.125C11.4663 12.125 12.9924 11.4929 14.1176 10.3676C15.2429 9.24242 15.875 7.7163 15.875 6.125C15.875 4.5337 15.2429 3.00758 14.1176 1.88236C12.9924 0.757141 11.4663 0.125 9.875 0.125H4.25C3.95163 0.125 3.66548 0.243526 3.4545 0.454505C3.24353 0.665483 3.125 0.951631 3.125 1.25V9.875H1.25C0.951631 9.875 0.665483 9.99353 0.454505 10.2045C0.243526 10.4155 0.125 10.7016 0.125 11C0.125 11.2984 0.243526 11.5845 0.454505 11.7955C0.665483 12.0065 0.951631 12.125 1.25 12.125H3.125V13.625H1.25C0.951631 13.625 0.665483 13.7435 0.454505 13.9545C0.243526 14.1655 0.125 14.4516 0.125 14.75C0.125 15.0484 0.243526 15.3345 0.454505 15.5455C0.665483 15.7565 0.951631 15.875 1.25 15.875H3.125V17.75C3.125 18.0484 3.24353 18.3345 3.4545 18.5455C3.66548 18.7565 3.95163 18.875 4.25 18.875C4.54837 18.875 4.83452 18.7565 5.0455 18.5455C5.25647 18.3345 5.375 18.0484 5.375 17.75V15.875H9.5C9.79837 15.875 10.0845 15.7565 10.2955 15.5455C10.5065 15.3345 10.625 15.0484 10.625 14.75C10.625 14.4516 10.5065 14.1655 10.2955 13.9545C10.0845 13.7435 9.79837 13.625 9.5 13.625H5.375V12.125H9.875ZM5.375 2.375H9.875C10.8696 2.375 11.8234 2.77009 12.5267 3.47335C13.2299 4.17661 13.625 5.13044 13.625 6.125C13.625 7.11956 13.2299 8.07339 12.5267 8.77665C11.8234 9.47991 10.8696 9.875 9.875 9.875H5.375V2.375Z" fill="#5932EA"/>
</svg>
